<?xml version="1.0" encoding="UTF-8"?><svg xmlns="http://www.w3.org/2000/svg" xmlns:xlink="http://www.w3.org/1999/xlink" viewBox="0 0 192.27 59.95"><defs><style>.f{fill:#fff;}.g{fill:#f96500;}.h{filter:url(#d);}</style><filter id="d" filterUnits="userSpaceOnUse"><feOffset dx="0" dy="0"/><feGaussianBlur result="e" stdDeviation="4.5"/><feFlood flood-color="#000" flood-opacity=".3"/><feComposite in2="e" operator="in"/><feComposite in="SourceGraphic"/></filter></defs><g id="a"/><g id="b"><g id="c"><g><g class="h"><g><path class="f" d="M17.1,37.32c-4.39,0-8.99-1.32-12.54-4.91l3.51-3.55c3.33,2.94,5.83,3.86,8.9,3.86,4.87,0,6.58-1.89,6.58-3.51,0-1.36-.7-2.41-4.47-3.38-.57-.13-4.3-1.18-4.91-1.36-4.82-1.32-8.82-3.25-8.82-7.76s3.86-7.94,11.45-7.94c4.39,0,8.2,1.49,11.27,4.69l-3.51,3.51c-2.1-2.41-4.61-3.6-7.76-3.6-4.74,0-6.27,1.93-6.27,3.2,0,1.49,1.58,2.28,5.7,3.38,.57,.18,3.82,1.14,4.43,1.27,5.61,1.49,8.07,4.04,8.07,7.81,0,4.25-3.42,8.29-11.62,8.29Z"/><path class="f" d="M58.25,36.84h-5.13V20.09c0-3.73-1.18-6.71-7.15-6.71-4.47,0-7.94,2.54-7.94,7.28v16.18h-5.13V0h5.13V12.19h.09c1.89-2.15,5.22-3.42,8.47-3.42,7.81,0,11.67,4.39,11.67,10.66v17.41Z"/><path class="f" d="M88.95,9.21l-11.8,27.63h-5.13l-11.8-27.63h5.7l7.46,18.25,1.14,3.6h.09l1.18-3.6,7.46-18.25h5.7Z"/></g><path class="f" d="M174.47,10.04h5.12v26.8h-5.12v-5.52c-2.31,4.11-5.97,6.14-11.09,6.14-4.05,0-7.38-1.3-9.91-3.94s-3.77-5.97-3.77-10.08,1.24-7.43,3.77-10.08,5.86-3.94,9.91-3.94c5.12,0,8.78,2.03,11.09,6.14v-5.52Zm-9.85,22.8c2.76,0,4.95-.9,6.7-2.65,1.75-1.8,2.65-4.05,2.65-6.76s-.9-4.95-2.65-6.7c-1.75-1.8-3.94-2.7-6.7-2.7s-5.01,.9-6.76,2.7c-1.75,1.75-2.59,4-2.59,6.7s.9,4.95,2.65,6.76c1.75,1.75,3.94,2.65,6.7,2.65Z"/><path class="f" d="M135.42,37.32c-4.39,0-8.99-1.32-12.54-4.91l3.51-3.55c3.33,2.94,5.83,3.86,8.9,3.86,4.87,0,6.58-1.89,6.58-3.51,0-1.36-.7-2.41-4.47-3.38-.57-.13-4.3-1.18-4.91-1.36-4.82-1.32-8.82-3.25-8.82-7.76s3.86-7.94,11.45-7.94c4.39,0,8.2,1.49,11.27,4.69l-3.51,3.51c-2.1-2.41-4.61-3.6-7.76-3.6-4.74,0-6.27,1.93-6.27,3.2,0,1.49,1.58,2.28,5.7,3.38,.57,.18,3.82,1.14,4.43,1.27,5.61,1.49,8.07,4.04,8.07,7.81,0,4.25-3.42,8.29-11.62,8.29Z"/><path class="f" d="M114.05,10.04h5.12v26.8h-5.12v-5.52c-2.31,4.11-5.97,6.14-11.09,6.14-4.05,0-7.38-1.3-9.91-3.94-2.53-2.65-3.77-5.97-3.77-10.08s1.24-7.43,3.77-10.08c2.53-2.65,5.86-3.94,9.91-3.94,5.12,0,8.78,2.03,11.09,6.14v-5.52Zm-9.85,22.8c2.76,0,4.95-.9,6.7-2.65,1.75-1.8,2.65-4.05,2.65-6.76s-.9-4.95-2.65-6.7c-1.75-1.8-3.94-2.7-6.7-2.7s-5.01,.9-6.76,2.7c-1.75,1.75-2.59,4-2.59,6.7s.9,4.95,2.65,6.76c1.75,1.75,3.94,2.65,6.7,2.65ZM113.6,.58V5.54h-16.55V.58h16.55Z"/></g><g><path class="g" d="M9.79,50.04l-4.16,5.7v4.08h-1.46v-4.08L0,50.04H1.82l2.43,3.43,.63,1.05h.02l.62-1.06,2.45-3.42h1.81Z"/><path class="g" d="M16.27,59.95c-3.11,0-4.74-2.01-4.74-4.95s1.63-5.07,4.74-5.07,4.74,2.11,4.74,5.07-1.68,4.95-4.74,4.95Zm0-8.69c-2.32,0-3.25,1.64-3.25,3.73s.94,3.61,3.25,3.61,3.25-1.57,3.25-3.61-.92-3.73-3.25-3.73Z"/><path class="g" d="M32.49,59.83h-1.24v-1.26h-.02c-.63,.83-1.78,1.38-3.06,1.38-3.14,0-4.92-1.91-4.92-4.92s1.84-5.11,4.99-5.11c1.39,0,2.85,.37,3.89,1.49l-1.06,1.04c-.72-.91-1.78-1.18-2.83-1.18-2.38,0-3.5,1.43-3.5,3.77s1.09,3.58,3.43,3.58c1.76,0,2.95-1.23,3-2.88l.15-.13h-3.33v-1.34h4.52v5.57Z"/><path class="g" d="M44.94,59.83h-1.58l-1.03-2.27,.07-.13h-5.21l.07,.13-1.03,2.27h-1.58l4.43-9.79h1.41l4.43,9.79Zm-3.2-3.75l-.15-.15-1.5-3.32-.28-.89h-.02l-.28,.88-1.51,3.33-.15,.15h3.88Z"/><path class="g" d="M53.28,59.83h-1.45v-9.79h1.45v9.79Z"/><path class="g" d="M64.76,59.83h-1.28l-4.91-6.33-.68-1.11h-.02v7.44h-1.45v-9.79h1.28l4.93,6.34,.65,1.1h.02v-7.44h1.45v9.79Z"/><path class="g" d="M79.98,59.83h-7.49v-9.79h7.49v1.34h-6.19l.15,.15v2.59l-.15,.16h5.61v1.33h-5.61l.15,.14v2.6l-.15,.15h6.19v1.34Z"/><path class="g" d="M91.8,50.04l-4.24,9.79h-1.41l-4.24-9.79h1.62l3.03,7.16,.29,.97h.02l.3-.97,3.03-7.16h1.6Z"/><path class="g" d="M101.47,59.83h-7.49v-9.79h7.49v1.34h-6.19l.15,.15v2.59l-.15,.16h5.61v1.33h-5.61l.15,.14v2.6l-.15,.15h6.19v1.34Z"/><path class="g" d="M113.06,59.83h-1.62l-1.27-2.59c-.45-.91-1.12-1.33-2.36-1.33h-2.2l.15,.13v3.78h-1.45v-9.79h4.43c1.85,0,3.44,.97,3.44,2.95,0,1.2-.85,2.13-1.84,2.46v.02c.4,.17,.86,.58,1.15,1.17l1.56,3.18Zm-4.31-8.45h-3.13l.15,.15v2.89l-.15,.16h3.01c1.35,0,2.08-.68,2.08-1.58,0-1.16-.8-1.61-1.96-1.61Z"/><path class="g" d="M123.99,50.04l-4.16,5.7v4.08h-1.46v-4.08l-4.17-5.7h1.82l2.43,3.43,.63,1.05h.02l.62-1.06,2.45-3.42h1.81Z"/><path class="g" d="M135.55,59.83h-4.74v-9.79h4.64c2.1,0,3.12,1.27,3.12,2.71,0,.86-.31,1.47-1.03,1.93v.02c.94,.35,1.45,1.21,1.45,2.28,0,1.75-1.22,2.84-3.44,2.84Zm-.22-8.45h-3.21l.15,.15v2.45l-.15,.15h3.21c1.32,0,1.75-.62,1.75-1.39,0-.89-.55-1.35-1.75-1.35Zm.22,4.08h-3.43l.15,.14v2.73l-.15,.15h3.43c1.45,0,1.96-.54,1.96-1.5s-.57-1.52-1.96-1.52Z"/><path class="g" d="M150.28,59.83h-1.62l-1.27-2.59c-.45-.91-1.12-1.33-2.36-1.33h-2.2l.15,.13v3.78h-1.45v-9.79h4.43c1.85,0,3.44,.97,3.44,2.95,0,1.2-.85,2.13-1.84,2.46v.02c.4,.17,.86,.58,1.15,1.17l1.56,3.18Zm-4.31-8.45h-3.13l.15,.15v2.89l-.15,.16h3.01c1.35,0,2.08-.68,2.08-1.58,0-1.16-.8-1.61-1.96-1.61Z"/><path class="g" d="M159.82,59.83h-7.49v-9.79h7.49v1.34h-6.19l.15,.15v2.59l-.15,.16h5.61v1.33h-5.61l.15,.14v2.6l-.15,.15h6.19v1.34Z"/><path class="g" d="M172.03,59.83h-1.58l-1.03-2.27,.07-.13h-5.21l.07,.13-1.03,2.27h-1.58l4.43-9.79h1.41l4.43,9.79Zm-3.2-3.75l-.15-.15-1.5-3.32-.28-.89h-.02l-.28,.88-1.51,3.33-.15,.15h3.88Z"/><path class="g" d="M181.7,51.38h-3.52l.07,.15v8.3h-1.45v-8.3l.08-.15h-3.53v-1.34h8.34v1.34Z"/><path class="g" d="M192.27,59.83h-1.45v-4.07l.15-.15h-5.73l.15,.15v4.07h-1.45v-9.79h1.45v4.08l-.15,.14h5.73l-.15-.14v-4.08h1.45v9.79Z"/></g></g></g></g></svg>