<svg xmlns="http://www.w3.org/2000/svg" xmlns:xlink="http://www.w3.org/1999/xlink" viewBox="0,0,256,256" width="32px" height="32px"><g fill="#ffffff" fill-rule="nonzero" stroke="none" stroke-width="1" stroke-linecap="butt" stroke-linejoin="miter" stroke-miterlimit="10" stroke-dasharray="" stroke-dashoffset="0" font-family="none" font-weight="none" font-size="none" text-anchor="none" style="mix-blend-mode: normal"><g transform="scale(8,8)"><path d="M15.5,2.09375l-1.40625,1.40625l2.5,2.53125c-0.19922,-0.01172 -0.39062,-0.03125 -0.59375,-0.03125c-5.5,0 -10,4.5 -10,10c0,1.5 0.30469,2.89453 0.90625,4.09375l1.5,-1.5c-0.19922,-0.80078 -0.40625,-1.69531 -0.40625,-2.59375c0,-4.39844 3.60156,-8 8,-8c0.17578,0 0.35938,0.01953 0.53125,0.03125l-2.4375,2.46875l1.40625,1.40625l4.21875,-4.1875l0.6875,-0.71875l-0.6875,-0.71875zM25.09375,11.90625l-1.5,1.5c0.30078,0.80078 0.40625,1.69531 0.40625,2.59375c0,4.39844 -3.60156,8 -8,8c-0.17578,0 -0.35937,-0.01953 -0.53125,-0.03125l2.4375,-2.46875l-1.40625,-1.40625l-4.21875,4.1875l-0.6875,0.71875l0.6875,0.71875l4.21875,4.1875l1.40625,-1.40625l-2.5,-2.53125c0.19531,0.01172 0.39844,0.03125 0.59375,0.03125c5.5,0 10,-4.5 10,-10c0,-1.5 -0.30469,-2.89453 -0.90625,-4.09375z"></path></g></g></svg>